<svg width="270" height="29" viewBox="0 0 270 29" fill="none" xmlns="http://www.w3.org/2000/svg">
<path d="M186.982 10.3398V0.256836H190.673C192.806 0.256836 194.157 1.15278 194.157 2.93045C194.15 3.37071 194.026 3.80108 193.795 4.17642C193.565 4.55176 193.238 4.85822 192.849 5.06365C193.309 5.26916 193.7 5.6033 193.975 6.02589C194.25 6.44849 194.397 6.94154 194.399 7.44573C194.416 7.84492 194.339 8.24255 194.175 8.6068C194.011 8.97105 193.764 9.29179 193.453 9.54337C192.727 10.0814 191.838 10.3526 190.936 10.3113L186.982 10.3398ZM188.077 1.29499V4.68678H190.922C192.187 4.68678 193.055 4.09659 193.055 2.95888C193.055 1.82118 192.166 1.29499 190.922 1.29499H188.077ZM188.077 9.3016H191.064C192.401 9.3016 193.29 8.66876 193.29 7.44573C193.29 6.22269 192.387 5.72494 191.156 5.72494H188.113L188.077 9.3016ZM202.462 7.1684H197.215C197.204 7.48229 197.258 7.79509 197.373 8.08709C197.489 8.3791 197.664 8.64398 197.887 8.86507C198.11 9.08616 198.377 9.25867 198.67 9.37174C198.963 9.4848 199.276 9.53598 199.59 9.52204C199.982 9.52014 200.369 9.42581 200.719 9.24669C201.068 9.06757 201.371 8.80869 201.602 8.49099L202.313 9.20205C201.991 9.62403 201.576 9.96564 201.099 10.2001C200.623 10.4345 200.099 10.5553 199.568 10.5531C199.099 10.5743 198.63 10.4953 198.194 10.3212C197.757 10.1471 197.363 9.8819 197.037 9.54337C196.399 8.81943 196.065 7.87675 196.105 6.91243C196.07 5.95224 196.374 5.01031 196.966 4.25303C197.474 3.67308 198.178 3.2999 198.943 3.20422C199.709 3.10855 200.483 3.29704 201.118 3.73395C201.567 4.0844 201.923 4.53891 202.156 5.05809C202.389 5.57727 202.491 6.14543 202.455 6.71332L202.462 7.1684ZM197.272 6.19424H201.417C201.423 5.92334 201.374 5.65405 201.274 5.40229C201.174 5.15053 201.024 4.92142 200.834 4.7285C200.644 4.53558 200.417 4.38278 200.166 4.27913C199.916 4.17547 199.647 4.12307 199.376 4.12503C198.168 4.12503 197.449 4.97121 197.272 6.19424ZM209.217 8.26345V4.26726H208.073V3.30731H209.217V1.33765H210.284V3.30731H211.92V4.28147H210.284V8.12124C210.284 9.04563 210.512 9.40116 211.365 9.40116H211.92V10.3682C211.735 10.3682 211.507 10.3682 211.258 10.3682C209.865 10.3682 209.203 9.77802 209.203 8.28478L209.217 8.26345ZM214.906 0.256836V4.13926C215.175 3.81856 215.511 3.56115 215.891 3.38539C216.271 3.20962 216.685 3.11984 217.103 3.12244C218.902 3.12244 219.905 4.23881 219.905 6.2369V10.3398H218.831V6.15158C218.831 4.84322 218.17 4.11082 217.032 4.11082C215.653 4.11082 214.899 5.1632 214.899 6.84132V10.3398H213.832V0.256836H214.906ZM227.847 7.14707H222.6C222.588 7.46062 222.641 7.77327 222.756 8.06525C222.871 8.35724 223.045 8.62221 223.267 8.84342C223.49 9.06462 223.756 9.23726 224.049 9.3504C224.341 9.46353 224.654 9.51472 224.968 9.50071C225.36 9.49881 225.747 9.40448 226.097 9.22536C226.446 9.04624 226.749 8.78736 226.98 8.46966L227.691 9.18072C227.369 9.6027 226.954 9.94431 226.477 10.1787C226.001 10.4131 225.477 10.534 224.946 10.5318C224.477 10.5526 224.008 10.4733 223.572 10.2992C223.136 10.1251 222.741 9.8602 222.415 9.52204C221.777 8.7981 221.443 7.85541 221.483 6.89109C221.448 5.9309 221.752 4.98898 222.344 4.2317C222.623 3.88041 222.98 3.60001 223.388 3.41341C223.796 3.22681 224.242 3.13928 224.69 3.15798C225.339 3.13674 225.977 3.33185 226.504 3.71262C226.948 4.06629 227.302 4.52137 227.534 5.03974C227.767 5.55812 227.872 6.12469 227.84 6.69199L227.847 7.14707ZM222.642 6.19424H226.781C226.787 5.92334 226.738 5.65405 226.638 5.40229C226.538 5.15053 226.388 4.92142 226.198 4.7285C226.007 4.53558 225.78 4.38278 225.53 4.27913C225.28 4.17547 225.011 4.12307 224.74 4.12503C223.538 4.12503 222.82 4.97121 222.635 6.19424H222.642ZM234.944 10.9655C235.134 11.3698 235.436 11.7113 235.814 11.9494C236.192 12.1876 236.63 12.3125 237.077 12.3094C238.592 12.3094 239.409 11.3281 239.409 9.84913V9.13806C239.141 9.4892 238.791 9.76933 238.389 9.954C237.987 10.1387 237.547 10.2223 237.106 10.1976C236.677 10.206 236.252 10.1206 235.86 9.94744C235.469 9.77424 235.119 9.5174 234.837 9.19495C234.245 8.48724 233.92 7.59366 233.92 6.67066C233.92 5.74766 234.245 4.85407 234.837 4.14636C235.119 3.82391 235.469 3.56708 235.86 3.39388C236.252 3.22068 236.677 3.13532 237.106 3.14377C237.552 3.12268 237.997 3.20922 238.403 3.39609C238.809 3.58295 239.164 3.86466 239.438 4.21748V3.30731H240.476V9.77803C240.476 11.9112 239.168 13.2978 237.077 13.2978C236.496 13.3198 235.919 13.1864 235.407 12.9114C234.895 12.6365 234.465 12.2298 234.162 11.7335L234.944 10.9655ZM235.655 8.46966C235.855 8.69311 236.1 8.87187 236.374 8.99424C236.648 9.11662 236.944 9.17988 237.244 9.17988C237.544 9.17988 237.841 9.11662 238.115 8.99424C238.388 8.87187 238.633 8.69311 238.833 8.46966C239.243 7.95126 239.466 7.30994 239.466 6.64932C239.466 5.98871 239.243 5.34739 238.833 4.82899C238.633 4.60554 238.388 4.42678 238.115 4.30441C237.841 4.18203 237.544 4.11877 237.244 4.11877C236.944 4.11877 236.648 4.18203 236.374 4.30441C236.1 4.42678 235.855 4.60554 235.655 4.82899C235.254 5.35096 235.036 5.99091 235.036 6.64932C235.036 7.30773 235.254 7.94769 235.655 8.46966ZM248.234 4.20325V3.30731H249.3V10.354H248.234V9.45804C247.953 9.79994 247.597 10.0727 247.194 10.2551C246.791 10.4376 246.351 10.525 245.909 10.5104C245.444 10.5209 244.982 10.4311 244.555 10.247C244.128 10.0629 243.746 9.78899 243.434 9.44382C242.814 8.71283 242.474 7.78552 242.474 6.82709C242.474 5.86866 242.814 4.94136 243.434 4.21037C243.743 3.86166 244.125 3.58484 244.552 3.39935C244.98 3.21386 245.443 3.12419 245.909 3.13665C246.346 3.12563 246.779 3.214 247.177 3.39507C247.575 3.57613 247.927 3.84518 248.205 4.18192L248.234 4.20325ZM244.202 8.73986C244.415 8.97946 244.676 9.17124 244.968 9.30257C245.261 9.4339 245.577 9.5018 245.898 9.5018C246.218 9.5018 246.535 9.4339 246.827 9.30257C247.12 9.17124 247.381 8.97946 247.594 8.73986C248.05 8.20329 248.29 7.51667 248.269 6.81287C248.292 6.11317 248.051 5.43058 247.594 4.9001C247.39 4.65333 247.134 4.45553 246.843 4.32136C246.553 4.1872 246.236 4.1201 245.916 4.12503C245.595 4.11902 245.276 4.18561 244.984 4.31981C244.693 4.45402 244.435 4.65238 244.23 4.9001C243.778 5.43233 243.542 6.11494 243.569 6.81287C243.543 7.51015 243.768 8.19368 244.202 8.73986ZM252.735 3.30731V4.15348C252.97 3.8377 253.276 3.58129 253.628 3.40473C253.979 3.22818 254.368 3.13637 254.761 3.13665C255.191 3.10437 255.62 3.19654 255.999 3.4021C256.377 3.60766 256.688 3.9179 256.895 4.29569C257.13 3.92946 257.456 3.63028 257.841 3.42719C258.226 3.22411 258.657 3.12401 259.092 3.13665C260.905 3.13665 261.815 4.1677 261.815 6.25113V10.354H260.749V6.15158C260.749 4.78633 260.201 4.11082 259.106 4.11082C258.011 4.11082 257.3 4.95698 257.3 6.45733V10.3398H256.233V6.22269C256.233 4.80056 255.7 4.08949 254.655 4.08949C253.446 4.08949 252.799 4.93565 252.799 6.436V10.3184H251.732V3.30731H252.735ZM270 7.16129H264.752C264.741 7.47519 264.795 7.78799 264.91 8.07999C265.026 8.37199 265.201 8.63687 265.424 8.85796C265.647 9.07905 265.914 9.25155 266.207 9.36462C266.5 9.47769 266.813 9.52886 267.127 9.51493C267.52 9.51302 267.906 9.4187 268.256 9.23958C268.606 9.06047 268.908 8.80159 269.139 8.48388L269.85 9.19495C269.528 9.61652 269.112 9.95782 268.636 10.1922C268.16 10.4266 267.636 10.5476 267.105 10.546C266.636 10.5672 266.167 10.4882 265.731 10.3141C265.294 10.14 264.9 9.87479 264.574 9.53626C263.934 8.81302 263.598 7.87049 263.635 6.90531C263.602 5.94433 263.91 5.00253 264.503 4.24592C264.781 3.89563 265.138 3.61583 265.544 3.42928C265.951 3.24272 266.396 3.15464 266.842 3.17221C267.492 3.15096 268.129 3.34607 268.656 3.72684C269.1 4.0805 269.454 4.53559 269.686 5.05397C269.919 5.57235 270.024 6.13892 269.992 6.70621L270 7.16129ZM264.823 6.19424H268.961C268.967 5.92334 268.918 5.65405 268.818 5.40229C268.718 5.15053 268.568 4.92142 268.378 4.7285C268.188 4.53558 267.961 4.38278 267.71 4.27913C267.46 4.17547 267.192 4.12307 266.921 4.12503C265.726 4.12503 265.008 4.97121 264.823 6.19424Z" fill="white"/>
<path d="M193.007 24.6957C192.672 25.1275 192.24 25.4747 191.746 25.7093C191.252 25.9439 190.71 26.0595 190.163 26.0467C189.69 26.058 189.219 25.9687 188.783 25.7849C188.347 25.601 187.954 25.3267 187.632 24.9801C186.964 24.2774 186.601 23.3395 186.622 22.3705C186.613 21.8894 186.7 21.4114 186.878 20.9645C187.057 20.5176 187.322 20.1108 187.66 19.768C187.983 19.4155 188.376 19.1355 188.815 18.9467C189.254 18.758 189.728 18.6646 190.206 18.6729C190.711 18.6646 191.211 18.7732 191.668 18.9903C192.124 19.2074 192.524 19.5271 192.837 19.9244L192.126 20.6355C191.905 20.34 191.62 20.0987 191.292 19.9299C190.965 19.7611 190.603 19.6692 190.234 19.6613C189.898 19.6543 189.564 19.7207 189.256 19.8558C188.947 19.9908 188.672 20.1914 188.449 20.4435C188.211 20.6998 188.025 21.0007 187.903 21.329C187.781 21.6572 187.725 22.0063 187.738 22.3563C187.697 22.9009 187.834 23.4442 188.13 23.9032C188.426 24.3623 188.864 24.712 189.377 24.8989C189.891 25.0858 190.451 25.0997 190.973 24.9385C191.495 24.7773 191.949 24.4498 192.268 24.0059L193.007 24.6957ZM195.852 15.8145V19.6613C196.121 19.3397 196.459 19.0817 196.84 18.9059C197.221 18.7301 197.636 18.6409 198.056 18.6445C199.848 18.6445 200.857 19.768 200.857 21.7661V25.8618H199.777V21.6808C199.777 20.3724 199.115 19.6329 197.985 19.6329C196.598 19.6329 195.852 20.6853 195.852 22.3705V25.8618H194.792V15.8145H195.852ZM208.26 19.7395V18.8436H209.362V25.8903H208.295V25.0015C208.016 25.3446 207.66 25.6177 207.256 25.7992C206.853 25.9806 206.412 26.0654 205.97 26.0467C205.505 26.0591 205.043 25.9701 204.615 25.7859C204.188 25.6017 203.806 25.3268 203.496 24.9801C202.872 24.2522 202.53 23.3253 202.53 22.3669C202.53 21.4085 202.872 20.4817 203.496 19.7538C203.803 19.4026 204.184 19.1237 204.612 18.9368C205.04 18.75 205.503 18.6599 205.97 18.6729C206.413 18.6579 206.853 18.7465 207.255 18.9317C207.658 19.1169 208.011 19.3935 208.288 19.7395H208.26ZM204.221 24.2904C204.432 24.532 204.693 24.7256 204.986 24.8583C205.278 24.991 205.596 25.0596 205.917 25.0596C206.238 25.0596 206.555 24.991 206.848 24.8583C207.14 24.7256 207.401 24.532 207.613 24.2904C208.067 23.7557 208.307 23.0719 208.288 22.3705C208.313 21.6704 208.072 20.9868 207.613 20.4577C207.406 20.2125 207.149 20.0153 206.858 19.88C206.568 19.7447 206.251 19.6746 205.931 19.6746C205.61 19.6746 205.294 19.7447 205.003 19.88C204.713 20.0153 204.456 20.2125 204.249 20.4577C203.794 20.9885 203.558 21.6722 203.588 22.3705C203.569 23.0693 203.804 23.7513 204.249 24.2904H204.221ZM212.818 18.8436V19.7111C213.09 19.3855 213.43 19.1236 213.815 18.9442C214.199 18.7648 214.619 18.6722 215.043 18.6729C216.842 18.6729 217.888 19.7964 217.888 21.7945V25.8903H216.807V21.7092C216.807 20.4008 216.145 19.6613 215.008 19.6613C213.628 19.6613 212.875 20.7137 212.875 22.3989V25.8903H211.808V18.8436H212.818ZM220.753 26.5231C220.945 26.9256 221.247 27.2651 221.625 27.5018C222.003 27.7386 222.441 27.8628 222.886 27.8599C224.394 27.8599 225.219 26.8787 225.219 25.3996V24.6886C224.951 25.0406 224.601 25.3217 224.199 25.5076C223.797 25.6935 223.357 25.7785 222.915 25.7552C222.486 25.7623 222.061 25.6756 221.669 25.5012C221.277 25.3268 220.928 25.0688 220.646 24.7455C220.05 24.0396 219.723 23.1453 219.723 22.2212C219.723 21.297 220.05 20.4027 220.646 19.6969C220.929 19.3744 221.278 19.1176 221.67 18.9444C222.061 18.7712 222.486 18.6858 222.915 18.6943C223.362 18.6734 223.807 18.7608 224.213 18.949C224.619 19.1371 224.974 19.4205 225.247 19.7751V18.8649H226.278V25.3499C226.278 27.4831 224.97 28.8697 222.886 28.8697C222.305 28.8939 221.728 28.7615 221.215 28.4863C220.702 28.2111 220.272 27.8032 219.971 27.3053L220.753 26.5231ZM221.464 24.0202C221.656 24.2503 221.898 24.4338 222.172 24.557C222.445 24.6802 222.743 24.7397 223.043 24.7312C223.346 24.7399 223.647 24.6805 223.923 24.5574C224.2 24.4343 224.446 24.2508 224.643 24.0202C225.053 23.5034 225.276 22.8631 225.276 22.2034C225.276 21.5437 225.053 20.9034 224.643 20.3866C224.446 20.1564 224.2 19.9731 223.923 19.8501C223.646 19.7271 223.346 19.6674 223.043 19.6756C222.743 19.6676 222.445 19.7274 222.172 19.8505C221.899 19.9736 221.657 20.1569 221.464 20.3866C221.063 20.9075 220.846 21.5462 220.846 22.2034C220.846 22.8606 221.063 23.4993 221.464 24.0202ZM234.619 22.6976H229.371C229.359 23.0114 229.412 23.3244 229.527 23.6167C229.642 23.9091 229.816 24.1745 230.038 24.3962C230.261 24.618 230.527 24.7913 230.82 24.9053C231.112 25.0192 231.425 25.0713 231.739 25.0583C232.133 25.0562 232.52 24.961 232.87 24.7806C233.22 24.6002 233.522 24.3396 233.751 24.0202L234.463 24.6957C234.139 25.1174 233.722 25.4587 233.245 25.693C232.767 25.9274 232.242 26.0484 231.711 26.0467C231.243 26.0688 230.776 25.9907 230.34 25.8179C229.905 25.645 229.512 25.3812 229.186 25.0441C228.547 24.3205 228.211 23.3782 228.248 22.4132C228.214 21.4533 228.519 20.5122 229.108 19.7538C229.615 19.1692 230.321 18.7928 231.089 18.697C231.856 18.6012 232.633 18.7927 233.268 19.2347C233.715 19.5848 234.07 20.0383 234.303 20.556C234.536 21.0738 234.639 21.6403 234.605 22.2069L234.619 22.6976ZM229.414 21.7519H233.538C233.544 21.4806 233.495 21.211 233.395 20.9589C233.295 20.7067 233.145 20.4771 232.955 20.2837C232.765 20.0902 232.538 19.9367 232.288 19.8323C232.037 19.7278 231.769 19.6745 231.497 19.6756C230.324 19.6613 229.606 20.5288 229.421 21.7519H229.414ZM240.251 19.7822C240.17 19.7747 240.089 19.7747 240.009 19.7822C238.338 19.7822 237.662 20.6142 237.662 22.8967V25.9045H236.603V18.8578H237.634V19.7964C237.898 19.4419 238.248 19.1606 238.651 18.979C239.054 18.7973 239.497 18.7214 239.938 18.7583C240.042 18.7512 240.146 18.7512 240.251 18.7583V19.7822Z" fill="white"/>
<path d="M166.816 0V26.6224" stroke="white" stroke-width="1.16"/>
<path d="M144.307 2.33245H143.674V3.26395H144.321C144.605 3.26395 144.911 3.14306 144.911 2.80174C144.911 2.46043 144.605 2.33245 144.307 2.33245ZM142.884 5.34737V1.59293H144.349C144.516 1.57141 144.685 1.58606 144.845 1.63585C145.005 1.68565 145.153 1.76945 145.278 1.8815C145.402 1.99355 145.502 2.13123 145.568 2.28514C145.635 2.43905 145.668 2.60556 145.665 2.77331C145.676 3.00563 145.614 3.23562 145.486 3.42995C145.358 3.62428 145.172 3.77286 144.954 3.85413L145.714 5.34737H144.883L144.171 3.99634H143.61V5.34737H142.884ZM141.526 3.47015C141.542 3.98438 141.708 4.48267 142.005 4.90272C142.302 5.32277 142.717 5.64596 143.196 5.83185C143.676 6.01775 144.2 6.05812 144.702 5.94792C145.205 5.83771 145.664 5.58182 146.022 5.21224C146.38 4.84266 146.621 4.37578 146.715 3.86997C146.809 3.36417 146.751 2.84188 146.55 2.36841C146.349 1.89493 146.013 1.49127 145.583 1.20791C145.154 0.924542 144.65 0.774041 144.136 0.775209C143.787 0.778889 143.442 0.851734 143.122 0.98953C142.801 1.12733 142.511 1.32733 142.269 1.57797C142.026 1.82861 141.835 2.12491 141.708 2.4497C141.58 2.7745 141.519 3.12134 141.526 3.47015ZM140.915 3.47015C140.927 2.83424 141.128 2.21622 141.49 1.69367C141.853 1.17113 142.362 0.767343 142.953 0.533004C143.544 0.298664 144.192 0.244219 144.814 0.376492C145.436 0.508766 146.005 0.821862 146.45 1.27649C146.895 1.73112 147.195 2.30702 147.314 2.93189C147.433 3.55676 147.364 4.20276 147.117 4.7888C146.87 5.37483 146.455 5.87479 145.925 6.22592C145.394 6.57704 144.772 6.76367 144.136 6.7624C143.708 6.75775 143.286 6.66891 142.892 6.50094C142.499 6.33297 142.143 6.08917 141.843 5.78345C141.544 5.47773 141.308 5.11609 141.149 4.71917C140.99 4.32225 140.91 3.89783 140.915 3.47015Z" fill="white"/>
<path d="M8.22705 15.0253C3.41313 14.1435 0.625743 11.5268 0.625743 7.36708C0.600349 6.33364 0.823473 5.3092 1.27635 4.37993C1.72923 3.45066 2.39861 2.64371 3.22823 2.02696C5.04621 0.647525 7.28293 -0.0654126 9.56384 0.00753128C11.331 -0.0193832 13.0833 0.334373 14.7017 1.04477C16.32 1.75517 17.7665 2.80557 18.9428 4.12461L15.9492 7.36708C14.1005 5.12011 11.9317 3.9824 9.40031 3.9824C6.50627 3.9824 4.98457 5.48986 4.98457 7.26042C4.98457 9.03097 6.40672 10.3109 9.17988 10.7518L11.7184 11.1997C17.1794 12.0815 19.8246 14.9186 19.8246 19.1495C19.8471 20.1933 19.6225 21.2277 19.1689 22.1681C18.7154 23.1086 18.0458 23.9284 17.2149 24.5607C15.4799 25.9259 13.1263 26.6228 10.1043 26.6228C8.14839 26.6667 6.21044 26.2416 4.45253 25.3831C2.69461 24.5245 1.16787 23.2575 0 21.688L2.93671 18.673C4.77838 21.1405 6.98979 22.6479 10.6447 22.6479C13.7236 22.6479 15.4586 21.2258 15.4586 19.2206C15.4586 17.2154 14.0791 16.0208 11.2988 15.5444L8.22705 15.0253Z" fill="white"/>
<path d="M40.2592 0.404297H44.5967V14.7679C44.5967 22.4616 40.6147 26.6214 34.3573 26.6214C28.0999 26.6214 24.1108 22.4616 24.1108 14.7679V0.404297H28.4555V14.8034C28.4555 20.0298 30.4109 22.6252 34.3573 22.6252C38.3038 22.6252 40.2592 20.0084 40.2592 14.7465V0.404297Z" fill="white"/>
<path d="M54.2585 22.2412H59.9044C63.6375 22.2412 65.5147 20.9897 65.5147 18.4867C65.5147 16.2042 63.7086 15.0594 60.0537 15.0594H54.2585V22.2412ZM54.2585 4.38628V11.049H59.6555C63.1255 11.049 64.8676 9.90416 64.8676 7.6643C64.8676 5.15423 62.8766 4.38628 59.4351 4.38628H54.2585ZM49.9565 26.216V0.404297H60.523C63.2037 0.404297 65.3369 0.994484 66.9226 2.1393C67.7088 2.73053 68.3355 3.50802 68.7463 4.40175C69.1572 5.29548 69.3393 6.27736 69.2763 7.25899C69.2988 8.34277 69.0504 9.41503 68.5538 10.3786C68.0571 11.3421 67.3278 12.1665 66.432 12.7769C67.5097 13.3867 68.4017 14.2775 69.0128 15.3545C69.6239 16.4315 69.9313 17.6541 69.902 18.892C69.902 23.4215 66.5031 26.216 61.1772 26.216H49.9565Z" fill="white"/>
<path d="M81.1815 20.7338H80.2785C80.3288 20.0828 80.5396 19.4544 80.8919 18.9047C81.2443 18.3551 81.7274 17.9012 82.2979 17.5837C82.8367 17.2226 83.4366 16.9624 84.0685 16.8158C84.744 16.6807 85.647 16.7518 86.2017 16.2754C86.4447 16.0558 86.6166 15.7685 86.6952 15.4504C86.7737 15.1324 86.7554 14.7981 86.6425 14.4906L83.5849 6.35599L79.7523 16.6665L78.1951 20.7195L76.0619 26.2019H71.5039L81.4233 0.390137H85.7679L95.6446 26.2019H91.1223L88.9891 20.7195L81.1815 20.7338Z" fill="white"/>
<path d="M103.303 4.38628V13.4026H108.117C112.063 13.4026 114.019 11.8951 114.019 8.87311C114.019 5.85107 112.063 4.38628 108.117 4.38628H103.303ZM113.876 26.216L108.55 17.4201H103.303V26.216H98.9937V0.404297H108.657C114.63 0.404297 118.328 3.5401 118.328 8.83755C118.328 12.6275 116.443 15.3936 113.151 16.6593L118.975 26.1947L113.876 26.216Z" fill="white"/>
<path d="M130.432 20.7338H129.508C129.559 20.0831 129.771 19.4552 130.123 18.9058C130.475 18.3563 130.958 17.9022 131.527 17.5837C132.06 17.2262 132.653 16.9662 133.277 16.8158C133.988 16.6807 134.855 16.7518 135.41 16.2754C135.653 16.0561 135.825 15.7684 135.902 15.45C135.98 15.1316 135.959 14.7972 135.843 14.4906L132.793 6.35599L128.953 16.6665L127.396 20.7195L125.298 26.2019H120.762L130.674 0.390137H135.019L144.902 26.2019H140.387L138.254 20.7195L130.432 20.7338Z" fill="white"/>
</svg>
